<svg width="67" height="37" viewBox="0 0 67 37" fill="none" xmlns="http://www.w3.org/2000/svg">
<path opacity="0.5" d="M48.6663 36.6667H18.6663C13.804 36.6667 9.14088 34.7351 5.70272 31.297C2.26455 27.8588 0.333008 23.1956 0.333008 18.3333C0.333008 13.471 2.26455 8.80787 5.70272 5.36971C9.14088 1.93154 13.804 0 18.6663 0H48.6663C53.5286 0 58.1918 1.93154 61.63 5.36971C65.0681 8.80787 66.9997 13.471 66.9997 18.3333C66.9997 23.1956 65.0681 27.8588 61.63 31.297C58.1918 34.7351 53.5286 36.6667 48.6663 36.6667Z" fill="#FF8B00"/>
<path d="M22.3174 18.3438C22.3174 21.9531 20.1455 24.1562 17.2236 24.1562C14.2705 24.1562 12.1143 21.9531 12.1143 18.3438C12.1143 14.7188 14.2705 12.5312 17.2236 12.5312C20.1455 12.5312 22.3174 14.7188 22.3174 18.3438ZM20.6143 18.3438C20.6143 15.5938 19.1611 14.1094 17.2236 14.1094C15.2705 14.1094 13.8174 15.5938 13.8174 18.3438C13.8174 21.0938 15.2705 22.5781 17.2236 22.5781C19.1611 22.5781 20.6143 21.0938 20.6143 18.3438ZM33.3799 12.6875V24H31.8018L26.0674 15.7344H25.9736V24H24.2549V12.6875H25.8486L31.583 20.9688H31.6924V12.6875H33.3799Z" fill="white"/>
<path d="M47.333 27.5C52.3036 27.5 56.333 23.4706 56.333 18.5C56.333 13.5294 52.3036 9.5 47.333 9.5C42.3624 9.5 38.333 13.5294 38.333 18.5C38.333 23.4706 42.3624 27.5 47.333 27.5Z" fill="white"/>
</svg>
