<svg width="67" height="37" viewBox="0 0 67 37" fill="none" xmlns="http://www.w3.org/2000/svg">
<path opacity="0.5" d="M48.6668 36.6667H18.6668C13.8045 36.6667 9.14137 34.7351 5.70321 31.297C2.26504 27.8588 0.333496 23.1956 0.333496 18.3333C0.333496 13.471 2.26504 8.80787 5.70321 5.36971C9.14137 1.93154 13.8045 0 18.6668 0H48.6668C53.5291 0 58.1923 1.93154 61.6305 5.36971C65.0686 8.80787 67.0002 13.471 67.0002 18.3333C67.0002 23.1956 65.0686 27.8588 61.6305 31.297C58.1923 34.7351 53.5291 36.6667 48.6668 36.6667Z" fill="#757575"/>
<path d="M17.3335 27.5C22.3041 27.5 26.3335 23.4706 26.3335 18.5C26.3335 13.5294 22.3041 9.5 17.3335 9.5C12.3629 9.5 8.3335 13.5294 8.3335 18.5C8.3335 23.4706 12.3629 27.5 17.3335 27.5Z" fill="#757575"/>
<path d="M40.3179 18.3438C40.3179 21.9531 38.146 24.1562 35.2241 24.1562C32.271 24.1562 30.1147 21.9531 30.1147 18.3438C30.1147 14.7188 32.271 12.5312 35.2241 12.5312C38.146 12.5312 40.3179 14.7188 40.3179 18.3438ZM38.6147 18.3438C38.6147 15.5938 37.1616 14.1094 35.2241 14.1094C33.271 14.1094 31.8179 15.5938 31.8179 18.3438C31.8179 21.0938 33.271 22.5781 35.2241 22.5781C37.1616 22.5781 38.6147 21.0938 38.6147 18.3438ZM42.2554 24V12.6875H49.271V14.1719H43.9741V17.5938H48.771V19.0625H43.9741V24H42.2554ZM51.1929 24V12.6875H58.2085V14.1719H52.9116V17.5938H57.7085V19.0625H52.9116V24H51.1929Z" fill="white"/>
</svg>
