<svg width="25" height="27" viewBox="0 0 25 27" fill="none" xmlns="http://www.w3.org/2000/svg">
<path d="M8.45801 23.5524L16.622 23.5095C16.1072 26.6493 12.3817 28.0549 9.91463 26.0398C9.14595 25.4119 8.62897 24.5291 8.45801 23.5524Z" fill="#757575"/>
<path opacity="0.3" d="M12.4169 0.40709C15.1618 0.39266 17.8001 1.46744 19.7513 3.39499C21.7025 5.32254 22.8068 7.94496 22.8212 10.6854L22.8503 16.1961L24.8301 20.5393C24.9201 20.738 24.959 20.9559 24.9432 21.1734C24.9274 21.3908 24.8574 21.6009 24.7397 21.7845C24.6219 21.9682 24.4601 22.1195 24.2689 22.2248C24.0776 22.3301 23.8631 22.3861 23.6447 22.3876L1.42701 22.5044C1.20833 22.5055 0.992843 22.452 0.800171 22.3487C0.607499 22.2454 0.443766 22.0957 0.32388 21.9131C0.203994 21.7305 0.131765 21.5209 0.113769 21.3033C0.0957741 21.0857 0.132584 20.8671 0.220848 20.6673L2.15056 16.3036L2.12141 10.7763L2.12649 10.4318C2.20678 7.75564 3.32443 5.21505 5.24397 3.34532C7.16352 1.47558 9.73507 0.421314 12.4169 0.40709Z" fill="#757575"/>
</svg>
