<svg width="45" height="45" viewBox="0 0 45 45" fill="none" xmlns="http://www.w3.org/2000/svg">
<path d="M22.5 39.5C13.1109 39.5 5.5 31.8891 5.5 22.5C5.5 13.1109 13.1109 5.5 22.5 5.5C31.8891 5.5 39.5 13.1109 39.5 22.5C39.5 31.8891 31.8891 39.5 22.5 39.5ZM14 31H17.4C17.4 29.6474 17.9373 28.3502 18.8938 27.3938C19.8502 26.4373 21.1474 25.9 22.5 25.9C23.8526 25.9 25.1498 26.4373 26.1062 27.3938C27.0627 28.3502 27.6 29.6474 27.6 31H31C31 28.7457 30.1045 26.5837 28.5104 24.9896C26.9163 23.3955 24.7543 22.5 22.5 22.5C20.2457 22.5 18.0837 23.3955 16.4896 24.9896C14.8955 26.5837 14 28.7457 14 31ZM15.7 20.8C16.3763 20.8 17.0249 20.5313 17.5031 20.0531C17.9813 19.5749 18.25 18.9263 18.25 18.25C18.25 17.5737 17.9813 16.9251 17.5031 16.4469C17.0249 15.9687 16.3763 15.7 15.7 15.7C15.0237 15.7 14.3751 15.9687 13.8969 16.4469C13.4187 16.9251 13.15 17.5737 13.15 18.25C13.15 18.9263 13.4187 19.5749 13.8969 20.0531C14.3751 20.5313 15.0237 20.8 15.7 20.8ZM29.3 20.8C29.9763 20.8 30.6249 20.5313 31.1031 20.0531C31.5813 19.5749 31.85 18.9263 31.85 18.25C31.85 17.5737 31.5813 16.9251 31.1031 16.4469C30.6249 15.9687 29.9763 15.7 29.3 15.7C28.6237 15.7 27.9751 15.9687 27.4969 16.4469C27.0187 16.9251 26.75 17.5737 26.75 18.25C26.75 18.9263 27.0187 19.5749 27.4969 20.0531C27.9751 20.5313 28.6237 20.8 29.3 20.8Z" fill="#FF8C8C"/>
</svg>
