<svg width="27" height="19" viewBox="0 0 27 19" fill="none" xmlns="http://www.w3.org/2000/svg">
<path opacity="0.3" d="M18.6105 6.56844C19.4815 6.56844 20.3169 6.91445 20.9328 7.53036C21.5487 8.14627 21.8947 8.98163 21.8947 9.85265V13.1369C21.8947 14.0079 21.5487 14.8433 20.9328 15.4592C20.3169 16.0751 19.4815 16.4211 18.6105 16.4211V17.4786C18.6105 18.639 17.2574 19.2729 16.3663 18.5296L13.8352 16.4211H10.9473C10.0763 16.4211 9.24092 16.0751 8.62501 15.4592C8.0091 14.8433 7.66309 14.0079 7.66309 13.1369V9.85265C7.66309 8.98163 8.0091 8.14627 8.62501 7.53036C9.24092 6.91445 10.0763 6.56844 10.9473 6.56844H18.6105Z" fill="#757575"/>
<path d="M15.3264 0C16.1974 0 17.0327 0.346015 17.6486 0.961926C18.2646 1.57784 18.6106 2.41319 18.6106 3.28422V4.37896H9.85266C8.69129 4.37896 7.57748 4.84031 6.75627 5.66153C5.93505 6.48274 5.4737 7.59655 5.4737 8.75792V13.1369C5.4737 14.2798 5.91159 15.322 6.62974 16.1014L5.4737 16.9685C4.57163 17.645 3.28422 17.0013 3.28422 15.8737V14.2316C2.41319 14.2316 1.57784 13.8856 0.961926 13.2697C0.346015 12.6538 0 11.8184 0 10.9474V3.28422C0 2.41319 0.346015 1.57784 0.961926 0.961926C1.57784 0.346015 2.41319 0 3.28422 0H15.3264Z" fill="#757575"/>
<path d="M17.3126 11.7934L19.4034 13.8525C19.4682 13.9162 19.5451 13.9668 19.6296 14.0012C19.7142 14.0357 19.8049 14.0534 19.8964 14.0534C19.988 14.0534 20.0786 14.0356 20.1632 14.0011C20.2477 13.9665 20.3246 13.9159 20.3893 13.8522C20.454 13.7884 20.5053 13.7127 20.5403 13.6294C20.5753 13.5461 20.5933 13.4568 20.5933 13.3667C20.5932 13.2765 20.5752 13.1872 20.5401 13.104C20.5051 13.0207 20.4537 12.945 20.3889 12.8813L19.4878 11.9945L25.5765 11.9951C25.7613 11.9951 25.9386 11.9228 26.0693 11.7941C26.2 11.6654 26.2734 11.4908 26.2734 11.3088C26.2734 11.1267 26.2 10.9521 26.0693 10.8234C25.9386 10.6947 25.7613 10.6224 25.5765 10.6224L19.4878 10.6218L20.3889 9.73431C20.4555 9.67099 20.5086 9.59526 20.5451 9.51152C20.5816 9.42778 20.6009 9.33771 20.6017 9.24658C20.6025 9.15544 20.5848 9.06506 20.5498 8.98071C20.5148 8.89636 20.463 8.81973 20.3976 8.75528C20.3321 8.69084 20.2543 8.63987 20.1687 8.60536C20.083 8.57085 19.9912 8.55348 19.8987 8.55427C19.8062 8.55507 19.7147 8.574 19.6297 8.60997C19.5446 8.64594 19.4677 8.69823 19.4034 8.76379L17.3126 10.8229C17.2478 10.8866 17.1964 10.9623 17.1613 11.0457C17.1262 11.129 17.1082 11.2183 17.1082 11.3085C17.1082 11.3987 17.1262 11.488 17.1613 11.5713C17.1964 11.6546 17.2478 11.7303 17.3126 11.7941V11.7934Z" fill="#757575"/>
</svg>
