<svg width="55" height="55" viewBox="0 0 55 55" fill="none" xmlns="http://www.w3.org/2000/svg">
<path fill-rule="evenodd" clip-rule="evenodd" d="M9.1665 20.625C9.62234 20.625 10.0595 20.8061 10.3818 21.1284C10.7042 21.4507 10.8853 21.8879 10.8853 22.3438V24.6354C10.8853 26.8173 11.315 28.9778 12.15 30.9935C12.9849 33.0093 14.2087 34.8409 15.7516 36.3837C17.2944 37.9265 19.1259 39.1503 21.1417 39.9853C23.1575 40.8202 25.318 41.25 27.4998 41.25C29.6817 41.25 31.8422 40.8202 33.858 39.9853C35.8737 39.1503 37.7053 37.9265 39.2481 36.3837C40.7909 34.8409 42.0147 33.0093 42.8497 30.9935C43.6847 28.9778 44.1144 26.8173 44.1144 24.6354V22.3438C44.1144 21.8879 44.2955 21.4507 44.6178 21.1284C44.9402 20.8061 45.3773 20.625 45.8332 20.625C46.289 20.625 46.7262 20.8061 47.0485 21.1284C47.3708 21.4507 47.5519 21.8879 47.5519 22.3438V24.6354C47.552 29.6561 45.6687 34.4942 42.2741 38.1934C38.8796 41.8926 34.2208 44.1838 29.2186 44.6142V49.8438C29.2186 50.2996 29.0375 50.7368 28.7152 51.0591C28.3928 51.3814 27.9557 51.5625 27.4998 51.5625C27.044 51.5625 26.6068 51.3814 26.2845 51.0591C25.9622 50.7368 25.7811 50.2996 25.7811 49.8438V44.6142C20.7789 44.1838 16.1201 41.8926 12.7255 38.1934C9.33098 34.4942 7.44764 29.6561 7.44775 24.6354V22.3438C7.44775 21.8879 7.62884 21.4507 7.95116 21.1284C8.27349 20.8061 8.71066 20.625 9.1665 20.625Z" fill="#FF8B00"/>
<path opacity="0.5" d="M22.3436 17.7604C22.3436 17.3046 22.1625 16.8674 21.8402 16.5451C21.5178 16.2228 21.0807 16.0417 20.6248 16.0417H14.4328C14.8493 12.8709 16.4046 9.95974 18.8087 7.85081C21.2129 5.74188 24.3018 4.57906 27.4998 4.57906C30.6979 4.57906 33.7868 5.74188 36.1909 7.85081C38.5951 9.95974 40.1503 12.8709 40.5669 16.0417H30.9373C30.4815 16.0417 30.0443 16.2228 29.722 16.5451C29.3997 16.8674 29.2186 17.3046 29.2186 17.7604C29.2186 18.2163 29.3997 18.6534 29.722 18.9758C30.0443 19.2981 30.4815 19.4792 30.9373 19.4792H40.6769V22.9167H30.9373C30.4815 22.9167 30.0443 23.0978 29.722 23.4201C29.3997 23.7424 29.2186 24.1796 29.2186 24.6354C29.2186 25.0913 29.3997 25.5284 29.722 25.8508C30.0443 26.1731 30.4815 26.3542 30.9373 26.3542H40.5646C40.1461 29.5232 38.5902 32.4321 36.1865 34.5392C33.7828 36.6464 30.6952 37.8081 27.4987 37.8081C24.3022 37.8081 21.2146 36.6464 18.8109 34.5392C16.4072 32.4321 14.8512 29.5232 14.4328 26.3542H20.6248C21.0807 26.3542 21.5178 26.1731 21.8402 25.8508C22.1625 25.5284 22.3436 25.0913 22.3436 24.6354C22.3436 24.1796 22.1625 23.7424 21.8402 23.4201C21.5178 23.0978 21.0807 22.9167 20.6248 22.9167H14.3228V19.4792H20.6248C21.0807 19.4792 21.5178 19.2981 21.8402 18.9758C22.1625 18.6534 22.3436 18.2163 22.3436 17.7604Z" fill="#FF8B00"/>
<path d="M29.2186 24.6354C29.2186 25.5842 29.9886 26.3542 30.9373 26.3542H40.5646L40.6769 22.9167H30.9373C30.4815 22.9167 30.0443 23.0978 29.722 23.4201C29.3997 23.7424 29.2186 24.1796 29.2186 24.6354ZM29.2186 17.7604C29.2186 18.7092 29.9886 19.4792 30.9373 19.4792H40.6769L40.5646 16.0417H30.9373C30.4815 16.0417 30.0443 16.2228 29.722 16.5451C29.3997 16.8674 29.2186 17.3046 29.2186 17.7604ZM22.3436 17.7604C22.3436 17.3046 22.1625 16.8674 21.8402 16.5451C21.5178 16.2228 21.0807 16.0417 20.6248 16.0417H14.4328L14.3228 19.4792H20.6248C21.0807 19.4792 21.5178 19.2981 21.8402 18.9758C22.1625 18.6534 22.3436 18.2163 22.3436 17.7604ZM22.3436 24.6354C22.3436 24.1796 22.1625 23.7424 21.8402 23.4201C21.5178 23.0978 21.0807 22.9167 20.6248 22.9167H14.3228L14.4328 26.3542H20.6248C21.0807 26.3542 21.5178 26.1731 21.8402 25.8508C22.1625 25.5284 22.3436 25.0913 22.3436 24.6354Z" fill="#FF8B00"/>
</svg>
