<svg width="151" height="151" viewBox="0 0 151 151" fill="none" xmlns="http://www.w3.org/2000/svg">
<g clip-path="url(#clip0_187_144)">
<path d="M6.42258 104.721C6.08119 104.199 4.95155 103.242 4.44918 102.653C2.77276 100.696 1.27397 98.5981 0 96.3555V116.456C0 135.532 15.4653 150.997 34.5415 150.997H66.7432L6.49752 105.196C6.33376 105.048 6.55303 104.918 6.42258 104.721Z" fill="white"/>
<path d="M116.459 0H34.5415C15.4653 0 0 15.4653 0 34.5415V59.2992C3.18909 53.5011 7.86031 48.5218 13.7361 45.0996C17.2416 40.9252 21.6963 37.5058 26.9449 35.2687L31.8131 33.509L35.0744 32.7707C42.4268 31.4107 50.1705 32.2489 57.0039 35.2576C58.3 35.8293 59.6073 36.8008 60.9174 37.0117L68.6972 42.9347C75.006 30.7973 87.3238 22.1598 101.97 21.2134C124.247 19.7729 143.473 36.662 144.913 58.9356C145.363 65.88 144.031 72.5274 141.311 78.431L141.455 78.4088C141.455 78.4088 136.231 93.466 119.803 105.959C108.987 120.222 98.1844 134.497 87.2905 148.705C87.1156 148.932 86.8908 149.176 86.8103 149.451L86.6243 149.518C86.5744 149.401 86.5216 149.34 86.4633 149.31C86.0359 149.87 85.6057 150.431 85.1783 150.992H116.459C135.535 150.992 151 135.526 151 116.45V34.5415C151 15.4653 135.535 0 116.459 0ZM72.9354 29.4734L71.0925 32.3849L69.6714 34.6303L57.8365 29.948L60.5288 25.6986L62.3717 22.7871L65.064 18.5378L74.3593 27.2335L72.9382 29.4789L72.9354 29.4734ZM81.5812 21.2078L78.6669 23.0425L76.4187 24.458L67.7479 15.1433L72.0056 12.4621L74.9199 10.6275L79.1776 7.94635L83.8322 19.7923L81.584 21.2078H81.5812ZM96.2832 17.6857L93.6353 17.8883L90.1992 18.152L87.5514 18.3546L84.229 6.07009L89.2444 5.68429L92.6805 5.42061L97.6959 5.03481L96.2832 17.6829V17.6857Z" fill="white"/>
<path d="M85.9112 149.312L15.9789 96.1442C15.8207 95.9999 16.0316 95.8695 15.9067 95.6779C15.5709 95.1672 14.4634 94.2263 13.9722 93.6518C12.0515 91.4092 10.3668 88.9806 8.99843 86.3577C8.65149 85.6971 8.42389 84.9477 7.94928 84.3704C7.46633 82.7523 6.63645 81.1147 6.18959 79.5021C2.8423 67.4092 5.94534 54.3864 13.739 45.105C7.86323 48.5272 3.19479 53.5037 0.00292969 59.3046V96.3607C1.2769 98.6006 2.77291 100.702 4.45211 102.658C4.95448 103.247 6.08412 104.204 6.42551 104.726C6.55318 104.923 6.33669 105.054 6.50045 105.201L66.7461 151.005H85.1812C85.6086 150.445 86.0388 149.884 86.4663 149.323C86.3053 149.243 86.1166 149.409 85.914 149.318L85.9112 149.312Z" fill="#FAFAFA"/>
<path opacity="0.6" d="M85.9112 149.312L15.9789 96.1442C15.8207 95.9999 16.0316 95.8695 15.9067 95.6779C15.5709 95.1672 14.4634 94.2263 13.9722 93.6518C12.0515 91.4092 10.3668 88.9806 8.99843 86.3577C8.65149 85.6971 8.42389 84.9477 7.94928 84.3704C7.46633 82.7523 6.63645 81.1147 6.18959 79.5021C2.8423 67.4092 5.94534 54.3864 13.739 45.105C7.86323 48.5272 3.19479 53.5037 0.00292969 59.3046V96.3607C1.2769 98.6006 2.77291 100.702 4.45211 102.658C4.95448 103.247 6.08412 104.204 6.42551 104.726C6.55318 104.923 6.33669 105.054 6.50045 105.201L66.7461 151.005H85.1812C85.6086 150.445 86.0388 149.884 86.4663 149.323C86.3053 149.243 86.1166 149.409 85.914 149.318L85.9112 149.312Z" fill="#FBB120"/>
<path d="M22.643 41.3305L25.9709 40.5783C33.4704 39.1933 41.364 40.0454 48.3306 43.1152C49.6517 43.698 50.9867 44.6861 52.3218 44.9054L60.5512 51.1725C59.7935 54.5587 59.416 58.0864 59.4743 61.7112C59.7935 81.4064 72.808 97.9208 90.5936 103.583L83.9184 124.136C95.584 122.276 105.154 118.732 112.953 114.449C104.133 126.081 95.3203 137.719 86.4664 149.324C86.5246 149.354 86.5774 149.412 86.6273 149.532L86.8133 149.465C86.8938 149.19 87.1186 148.946 87.2935 148.719C98.1874 134.513 108.987 120.239 119.806 105.973C111.926 111.968 101.471 117.372 87.7709 120.242L94.1907 100.627C77.8761 96.2916 65.4001 81.9448 64.2482 64.1676C63.7542 56.5376 65.4112 49.2685 68.6974 42.9459L60.9176 37.0229C59.6075 36.8092 58.3003 35.8405 57.0041 35.2687C50.1707 32.2573 42.4298 31.4218 35.0746 32.7819L31.8134 33.5201L26.9451 35.2798C21.6993 37.5169 17.2446 40.9364 13.7363 45.1108C14.9964 44.378 16.312 43.7147 17.6776 43.1318L22.643 41.3388V41.3305Z" fill="#FAFAFA"/>
<path opacity="0.6" d="M22.643 41.3305L25.9709 40.5783C33.4704 39.1933 41.364 40.0454 48.3306 43.1152C49.6517 43.698 50.9867 44.6861 52.3218 44.9054L60.5512 51.1725C59.7935 54.5587 59.416 58.0864 59.4743 61.7112C59.7935 81.4064 72.808 97.9208 90.5936 103.583L83.9184 124.136C95.584 122.276 105.154 118.732 112.953 114.449C104.133 126.081 95.3203 137.719 86.4664 149.324C86.5246 149.354 86.5774 149.412 86.6273 149.532L86.8133 149.465C86.8938 149.19 87.1186 148.946 87.2935 148.719C98.1874 134.513 108.987 120.239 119.806 105.973C111.926 111.968 101.471 117.372 87.7709 120.242L94.1907 100.627C77.8761 96.2916 65.4001 81.9448 64.2482 64.1676C63.7542 56.5376 65.4112 49.2685 68.6974 42.9459L60.9176 37.0229C59.6075 36.8092 58.3003 35.8405 57.0041 35.2687C50.1707 32.2573 42.4298 31.4218 35.0746 32.7819L31.8134 33.5201L26.9451 35.2798C21.6993 37.5169 17.2446 40.9364 13.7363 45.1108C14.9964 44.378 16.312 43.7147 17.6776 43.1318L22.643 41.3388V41.3305Z" fill="#FBB120"/>
<path d="M6.18667 79.4995C6.63353 81.1121 7.46064 82.7497 7.94636 84.3678C8.42097 84.9451 8.65134 85.6945 8.99551 86.3551C10.3666 88.978 12.0486 91.4094 13.9693 93.6492C14.4633 94.2265 15.568 95.1646 15.9038 95.6753C16.0315 95.8669 15.8178 95.9945 15.976 96.1416L85.911 149.31C86.1136 149.399 86.3024 149.232 86.4634 149.315C95.3173 137.711 104.13 126.073 112.95 114.441C105.154 118.723 95.5838 122.268 83.9154 124.127L90.5906 103.575C72.805 97.9124 59.7905 81.398 59.4713 61.7028C59.413 58.0808 59.7905 54.5531 60.5482 51.1641L52.3188 44.897C50.9837 44.6805 49.6515 43.6896 48.3276 43.1068C41.361 40.037 33.4646 39.1849 25.9679 40.5699L22.64 41.3221L17.6746 43.1151C16.3063 43.698 14.9934 44.3613 13.7333 45.0941C5.93965 54.3754 2.8366 67.401 6.18389 79.4912L6.18667 79.4995Z" fill="#FAFAFA"/>
<path opacity="0.6" d="M6.18667 79.4995C6.63353 81.1121 7.46064 82.7497 7.94636 84.3678C8.42097 84.9451 8.65134 85.6945 8.99551 86.3551C10.3666 88.978 12.0486 91.4094 13.9693 93.6492C14.4633 94.2265 15.568 95.1646 15.9038 95.6753C16.0315 95.8669 15.8178 95.9945 15.976 96.1416L85.911 149.31C86.1136 149.399 86.3024 149.232 86.4634 149.315C95.3173 137.711 104.13 126.073 112.95 114.441C105.154 118.723 95.5838 122.268 83.9154 124.127L90.5906 103.575C72.805 97.9124 59.7905 81.398 59.4713 61.7028C59.413 58.0808 59.7905 54.5531 60.5482 51.1641L52.3188 44.897C50.9837 44.6805 49.6515 43.6896 48.3276 43.1068C41.361 40.037 33.4646 39.1849 25.9679 40.5699L22.64 41.3221L17.6746 43.1151C16.3063 43.698 14.9934 44.3613 13.7333 45.0941C5.93965 54.3754 2.8366 67.401 6.18389 79.4912L6.18667 79.4995Z" fill="#FBB120"/>
<path opacity="0.6" d="M6.18667 79.4995C6.63353 81.1121 7.46064 82.7497 7.94636 84.3678C8.42097 84.9451 8.65134 85.6945 8.99551 86.3551C10.3666 88.978 12.0486 91.4094 13.9693 93.6492C14.4633 94.2265 15.568 95.1646 15.9038 95.6753C16.0315 95.8669 15.8178 95.9945 15.976 96.1416L85.911 149.31C86.1136 149.399 86.3024 149.232 86.4634 149.315C95.3173 137.711 104.13 126.073 112.95 114.441C105.154 118.723 95.5838 122.268 83.9154 124.127L90.5906 103.575C72.805 97.9124 59.7905 81.398 59.4713 61.7028C59.413 58.0808 59.7905 54.5531 60.5482 51.1641L52.3188 44.897C50.9837 44.6805 49.6515 43.6896 48.3276 43.1068C41.361 40.037 33.4646 39.1849 25.9679 40.5699L22.64 41.3221L17.6746 43.1151C16.3063 43.698 14.9934 44.3613 13.7333 45.0941C5.93965 54.3754 2.8366 67.401 6.18389 79.4912L6.18667 79.4995Z" fill="#FBB120"/>
<path d="M64.2452 64.162C65.3971 81.9393 77.8731 96.2832 94.1877 100.621L87.7679 120.236C101.468 117.366 111.923 111.962 119.803 105.967C136.229 93.4716 141.455 78.4171 141.455 78.4171L141.311 78.4393C144.031 72.5358 145.363 65.8884 144.913 58.944C143.473 36.6676 124.244 19.7785 101.97 21.2218C87.3238 22.171 75.006 30.8057 68.6972 42.9431C65.411 49.2657 63.754 56.5349 64.248 64.1648L64.2452 64.162ZM97.8042 51.9413C98.376 49.1825 101.077 47.4089 103.835 47.9807C106.594 48.5524 108.368 51.253 107.796 54.0119C107.224 56.7708 104.524 58.5443 101.765 57.9726C99.006 57.4008 97.2324 54.7002 97.8042 51.9413ZM97.2463 70.7095C100.347 70.1905 103.144 68.2004 105.226 65.9328H105.359L107.885 68.3725C105.504 71.0842 102.375 73.2158 98.845 74.1067L96.2332 74.5259H94.5013L92.8221 74.3066C89.3444 73.6765 86.1719 72.0112 83.5102 69.7297V69.5965L86.0082 67.0624C89.1112 69.6576 93.1246 71.4006 97.2463 70.7095ZM81.6312 52.7851C82.2029 50.0262 84.9035 48.2527 87.6624 48.8244C90.4213 49.3962 92.1948 52.0968 91.6231 54.8557C91.0513 57.6145 88.3507 59.3881 85.5919 58.8163C82.833 58.2446 81.0594 55.544 81.6312 52.7851Z" fill="#FBB01D"/>
<path d="M85.5947 58.8193C88.3536 59.391 91.0542 57.6175 91.6259 54.8586C92.1977 52.0997 90.4241 49.3991 87.6652 48.8274C84.9064 48.2556 82.2058 50.0292 81.634 52.788C81.0622 55.5469 82.8358 58.2475 85.5947 58.8193Z" fill="#FAFAFA"/>
<path d="M101.765 57.9726C104.524 58.5444 107.225 56.7708 107.796 54.0119C108.368 51.253 106.595 48.5524 103.836 47.9807C101.077 47.4089 98.3762 49.1825 97.8044 51.9414C97.2327 54.7002 99.0062 57.4008 101.765 57.9726Z" fill="#FAFAFA"/>
<path d="M83.5103 69.5963V69.7295C86.172 72.011 89.3444 73.6763 92.8222 74.3064L94.5014 74.5257H96.2333L98.8451 74.1066C102.376 73.2184 105.504 71.0868 107.885 68.3723L105.359 65.9326H105.226C103.144 68.2002 100.347 70.1903 97.2464 70.7093C93.1247 71.4004 89.1113 69.6574 86.0082 67.0623L83.5103 69.5963Z" fill="#FAFAFA"/>
<path d="M89.2444 5.68707L84.229 6.0701L87.5513 18.3574L90.2019 18.152L93.6353 17.8883L96.2831 17.6857L97.6959 5.0376L92.6805 5.4234L89.2444 5.68707Z" fill="#FBB120"/>
<path d="M74.9171 10.6275L72.0028 12.4649L67.7451 15.1432L76.4159 24.4607L78.6641 23.0452L81.5811 21.2078L83.8265 19.7923L79.1748 7.94629L74.9171 10.6275Z" fill="#FBB120"/>
<path d="M62.3716 22.7845L60.5287 25.696L57.8364 29.9454L69.6713 34.6277L71.0924 32.3851L72.9353 29.4735L74.3564 27.2281L65.0611 18.5352L62.3716 22.7845Z" fill="#FBB120"/>
</g>
<defs>
<clipPath id="clip0_187_144">
<rect width="151" height="151" fill="white"/>
</clipPath>
</defs>
</svg>
