<svg width="36" height="36" viewBox="0 0 36 36" fill="none" xmlns="http://www.w3.org/2000/svg">
<path d="M6.32469 17.3341C6.36808 15.1727 6.39037 14.0925 7.10812 13.1684C7.25236 12.9842 7.41462 12.8149 7.59248 12.6629C8.47442 11.917 9.64017 11.917 11.9705 11.917C12.8032 11.917 13.2195 11.917 13.6159 11.8091C13.698 11.7856 13.7797 11.7594 13.861 11.7305C14.2481 11.5886 14.5964 11.3435 15.2919 10.8556C18.0338 8.92637 19.406 7.96234 20.5565 8.38102C20.777 8.46195 20.9904 8.57805 21.1816 8.72113C22.1761 9.46586 22.2524 11.2016 22.4037 14.6707C22.46 15.9561 22.4975 17.0562 22.4975 17.6672C22.4975 18.2782 22.46 19.3795 22.4037 20.6637C22.2512 24.1328 22.1761 25.8685 21.1816 26.6132C20.9908 26.7563 20.7802 26.8708 20.5565 26.9534C19.4048 27.372 18.035 26.408 15.2907 24.4788C14.5964 23.9909 14.2481 23.7458 13.8599 23.6039C13.7795 23.5747 13.6982 23.5485 13.6159 23.5253C13.2195 23.4174 12.8032 23.4174 11.9705 23.4174C9.64017 23.4174 8.47559 23.4174 7.59248 22.6715C7.41468 22.5199 7.25242 22.351 7.10812 22.1672C6.39037 21.2407 6.36926 20.1617 6.32469 18.0014C6.32015 17.7786 6.32015 17.5569 6.32469 17.3341Z" fill="#FF8B00"/>
<path fill-rule="evenodd" clip-rule="evenodd" d="M26.5564 10.1048C26.6362 10.0328 26.7302 9.97821 26.8323 9.94452C26.9345 9.91083 27.0425 9.89879 27.1495 9.90916C27.2565 9.91953 27.3602 9.95209 27.454 10.0048C27.5477 10.0574 27.6295 10.1291 27.694 10.2151L27.0736 10.7675L27.6952 10.2162L27.6975 10.2186L27.701 10.2233L27.7092 10.2338L27.8019 10.3652C27.8582 10.4488 27.9309 10.5681 28.02 10.7229C28.1948 11.0325 28.4176 11.4875 28.6369 12.0962C29.0779 13.3171 29.5001 15.1467 29.5001 17.667C29.5001 20.1873 29.0779 22.018 28.6369 23.2377C28.4176 23.8476 28.1948 24.3015 28.02 24.6123C27.9246 24.7803 27.8208 24.9435 27.7092 25.1013L27.701 25.1119L27.6975 25.1154L27.6963 25.1177C27.6963 25.1177 27.6952 25.1189 27.0736 24.5665L27.6952 25.1189C27.6306 25.2051 27.5488 25.2769 27.455 25.3297C27.3611 25.3825 27.2573 25.4151 27.1501 25.4255C27.0429 25.4358 26.9348 25.4237 26.8325 25.3899C26.7303 25.3561 26.6363 25.3014 26.5564 25.2291C26.3904 25.0765 26.2876 24.8673 26.2681 24.6427C26.2485 24.4181 26.3137 24.1943 26.4508 24.0153L26.486 23.9672C26.5173 23.9203 26.5662 23.8394 26.6326 23.7245C26.8291 23.3707 26.9947 23.0007 27.1275 22.6185C27.4958 21.597 27.8828 19.9762 27.8828 17.667C27.8828 15.3578 27.4958 13.7381 27.1275 12.7155C26.9946 12.3337 26.829 11.964 26.6326 11.6107C26.5762 11.5088 26.5147 11.4098 26.4485 11.314M24.5239 13.4637C24.9145 13.2327 25.4071 13.3816 25.624 13.7991L25.6252 13.8015L25.6275 13.805L25.6311 13.8132L25.6428 13.8343L25.6709 13.8965C25.6928 13.9457 25.7202 14.0122 25.753 14.0958C25.8152 14.2659 25.8938 14.5063 25.97 14.823C26.1225 15.4563 26.2655 16.391 26.2655 17.667C26.2655 18.9442 26.1225 19.8789 25.97 20.5122C25.8938 20.8288 25.8152 21.0693 25.7519 21.2381C25.7186 21.3268 25.6819 21.414 25.6416 21.4997L25.6311 21.5208L25.6275 21.529L25.6252 21.5325V21.5349C25.6252 21.5349 25.624 21.536 24.9168 21.1173L25.624 21.536C25.4071 21.9524 24.9145 22.1025 24.5239 21.8714C24.1369 21.6416 23.9962 21.1232 24.2049 20.7092L24.2096 20.6975L24.2507 20.5978C24.2882 20.4969 24.3445 20.328 24.4031 20.0841C24.5204 19.5962 24.6471 18.8058 24.6471 17.6682C24.6471 16.5294 24.5204 15.7389 24.4031 15.2522C24.3528 15.0432 24.2881 14.8378 24.2096 14.6377L24.2049 14.6259C24.103 14.4274 24.0792 14.1979 24.1382 13.9827C24.1973 13.7675 24.3349 13.5823 24.5239 13.4637Z" fill="#FF8B00"/>
</svg>
