<svg width="67" height="75" viewBox="0 0 67 75" fill="none" xmlns="http://www.w3.org/2000/svg">
<g clip-path="url(#clip0_187_162)">
<path d="M49.6554 74.9999H45.8501L45.7877 48.5731H31.5024V44.9751H47.8775C48.7067 44.9751 49.7178 46.1021 49.7178 46.9292C49.5072 56.1594 50.0011 65.4336 49.7203 74.6613C49.7177 74.7802 49.7255 74.8965 49.6554 74.9999Z" fill="#FAFAFA"/>
<path d="M60.8215 64.5162L56.499 63.5107L56.395 63.3737L61.6324 39.3301L66.8907 40.5837L66.9998 40.7259L60.8215 64.5162Z" fill="#FAFAFA"/>
<path d="M54.9693 67.5677L53.7002 72.8735L58.9017 74.1039L60.1708 68.7981L54.9693 67.5677Z" fill="#FAFAFA"/>
<path d="M15.6577 0V4.09429H10.2305V11.2283H16.2191V0H27.6349V4.09429H20.7106V11.2283H27.6972V15.3226H19.0886V19.9132H33.4675C33.4675 19.9132 33.5611 19.9984 33.5611 20.0062V21.7742H39.7992V25.3722H35.2454V31.2035H40.1111V21.7742H49.7802V25.3722H43.9787V31.2035H49.8114C49.8114 31.2035 49.905 31.2888 49.905 31.2965V34.8015H42.6687V38.5236H54.7707V42.1216H27.5101C27.4945 42.1216 27.5257 42.4318 27.5101 42.4318H23.0187V31.8238H5.9886V27.6675H25.358C26.382 27.6675 27.5101 28.7117 27.5101 29.7457V38.5236H38.7387V34.8015H32.9061C32.6799 34.8015 32.0457 34.3983 31.8742 34.2147C31.7026 34.0312 31.3777 33.4522 31.3777 33.2196V24.0695H0V19.9132H14.5972V15.3226H7.6417C6.73457 15.3226 5.79105 14.1207 5.80145 13.2444V0H15.6577Z" fill="#FAFAFA"/>
</g>
<defs>
<clipPath id="clip0_187_162">
<rect width="67" height="75" fill="white"/>
</clipPath>
</defs>
</svg>
