<svg width="26" height="30" viewBox="0 0 26 30" fill="none" xmlns="http://www.w3.org/2000/svg">
<path d="M8.47363 25.5905L16.6528 25.5475C16.1371 28.6983 12.4046 30.1089 9.93297 28.0867C9.16286 27.4566 8.64492 26.5707 8.47363 25.5905Z" fill="#757575"/>
<path opacity="0.3" d="M12.44 2.06555C15.1901 2.05107 17.8333 3.12964 19.7881 5.06399C21.7429 6.99835 22.8493 9.63003 22.8638 12.3801L22.8929 17.9103L24.8763 22.2689C24.9665 22.4682 25.0055 22.6869 24.9897 22.9051C24.9739 23.1234 24.9038 23.3342 24.7858 23.5185C24.6678 23.7027 24.5057 23.8546 24.3141 23.9603C24.1225 24.066 23.9076 24.1221 23.6888 24.1236L1.42967 24.2408C1.21058 24.242 0.994693 24.1883 0.801662 24.0846C0.608631 23.981 0.444593 23.8307 0.324483 23.6475C0.204374 23.4642 0.13201 23.2539 0.113982 23.0355C0.0959527 22.8172 0.132832 22.5978 0.22126 22.3973L2.15457 18.0181L2.12536 12.4713L2.13045 12.1257C2.21089 9.44003 3.33062 6.89048 5.25375 5.01415C7.17687 3.13782 9.75322 2.07982 12.44 2.06555Z" fill="#757575"/>
<circle cx="20.1084" cy="5.497" r="4.24704" fill="#FF8B00" stroke="#FAFAFA" stroke-width="1.5"/>
</svg>
