<svg width="28" height="28" viewBox="0 0 28 28" fill="none" xmlns="http://www.w3.org/2000/svg">
<path opacity="0.5" d="M28 11.2H0V23.8C0 24.9139 0.442499 25.9821 1.23015 26.7698C2.0178 27.5575 3.08609 28 4.2 28H23.8C24.9139 28 25.9822 27.5575 26.7698 26.7698C27.5575 25.9821 28 24.9139 28 23.8V11.2ZM7 8.39995C6.6287 8.39995 6.2726 8.25245 6.01005 7.9899C5.7475 7.72735 5.6 7.37126 5.6 6.99995V1.39995C5.6 1.02865 5.7475 0.672554 6.01005 0.410003C6.2726 0.147452 6.6287 -4.76837e-05 7 -4.76837e-05C7.3713 -4.76837e-05 7.7274 0.147452 7.98995 0.410003C8.2525 0.672554 8.4 1.02865 8.4 1.39995V6.99995C8.4 7.37126 8.2525 7.72735 7.98995 7.9899C7.7274 8.25245 7.3713 8.39995 7 8.39995ZM21 8.39995C20.6287 8.39995 20.2726 8.25245 20.01 7.9899C19.7475 7.72735 19.6 7.37126 19.6 6.99995V1.39995C19.6 1.02865 19.7475 0.672554 20.01 0.410003C20.2726 0.147452 20.6287 -4.76837e-05 21 -4.76837e-05C21.3713 -4.76837e-05 21.7274 0.147452 21.99 0.410003C22.2525 0.672554 22.4 1.02865 22.4 1.39995V6.99995C22.4 7.37126 22.2525 7.72735 21.99 7.9899C21.7274 8.25245 21.3713 8.39995 21 8.39995Z" fill="#FCC57B"/>
<path d="M23.8 2.99995H22.4V6.99995C22.4 7.35357 22.2525 7.69271 21.99 7.94276C21.7274 8.19281 21.3713 8.33329 21 8.33329C20.6287 8.33329 20.2726 8.19281 20.01 7.94276C19.7475 7.69271 19.6 7.35357 19.6 6.99995V2.99995H8.4V6.99995C8.4 7.35357 8.2525 7.69271 7.98995 7.94276C7.7274 8.19281 7.3713 8.33329 7 8.33329C6.6287 8.33329 6.2726 8.19281 6.01005 7.94276C5.7475 7.69271 5.6 7.35357 5.6 6.99995V2.99995H4.2C3.08609 2.99995 2.0178 3.42138 1.23015 4.17153C0.442499 4.92167 0 5.93909 0 6.99995V11H28V6.99995C28 5.93909 27.5575 4.92167 26.7698 4.17153C25.9822 3.42138 24.9139 2.99995 23.8 2.99995Z" fill="#FCC57B"/>
</svg>
