<svg width="121" height="46" viewBox="0 0 121 46" fill="none" xmlns="http://www.w3.org/2000/svg">
<rect x="1" y="1" width="119" height="44" rx="22" stroke="#FCC57B" stroke-width="2"/>
<path opacity="0.3" d="M30.6105 20.6436C31.4815 20.6436 32.3169 20.9896 32.9328 21.6056C33.5487 22.2215 33.8947 23.0568 33.8947 23.9279V27.2121C33.8947 28.0831 33.5487 28.9185 32.9328 29.5344C32.3169 30.1503 31.4815 30.4963 30.6105 30.4963V31.5538C30.6105 32.7142 29.2574 33.3481 28.3663 32.6048L25.8352 30.4963H22.9473C22.0763 30.4963 21.2409 30.1503 20.625 29.5344C20.0091 28.9185 19.6631 28.0831 19.6631 27.2121V23.9279C19.6631 23.0568 20.0091 22.2215 20.625 21.6056C21.2409 20.9896 22.0763 20.6436 22.9473 20.6436H30.6105Z" fill="#757575"/>
<path d="M27.3264 14.0752C28.1974 14.0752 29.0327 14.4212 29.6486 15.0371C30.2646 15.653 30.6106 16.4884 30.6106 17.3594V18.4542H21.8527C20.6913 18.4542 19.5775 18.9155 18.7563 19.7367C17.9351 20.5579 17.4737 21.6717 17.4737 22.8331V27.2121C17.4737 28.355 17.9116 29.3972 18.6297 30.1766L17.4737 31.0437C16.5716 31.7202 15.2842 31.0765 15.2842 29.9489V28.3068C14.4132 28.3068 13.5778 27.9608 12.9619 27.3449C12.346 26.729 12 25.8936 12 25.0226V17.3594C12 16.4884 12.346 15.653 12.9619 15.0371C13.5778 14.4212 14.4132 14.0752 15.2842 14.0752H27.3264Z" fill="#757575"/>
<path d="M38.0693 25.8686L35.9784 27.9277C35.9136 27.9914 35.8368 28.042 35.7522 28.0764C35.6676 28.1109 35.5769 28.1286 35.4854 28.1286C35.3939 28.1286 35.3032 28.1108 35.2187 28.0762C35.1341 28.0417 35.0573 27.9911 34.9926 27.9274C34.9278 27.8636 34.8765 27.7879 34.8415 27.7046C34.8065 27.6213 34.7885 27.532 34.7886 27.4418C34.7886 27.3517 34.8067 27.2624 34.8417 27.1792C34.8768 27.0959 34.9281 27.0202 34.9929 26.9565L35.8941 26.0697L29.8054 26.0703C29.6205 26.0703 29.4432 25.998 29.3125 25.8693C29.1818 25.7406 29.1084 25.566 29.1084 25.384C29.1084 25.2019 29.1818 25.0273 29.3125 24.8986C29.4432 24.7699 29.6205 24.6976 29.8054 24.6976L35.8941 24.697L34.9929 23.8095C34.9263 23.7462 34.8732 23.6704 34.8367 23.5867C34.8002 23.503 34.781 23.4129 34.7802 23.3218C34.7794 23.2306 34.797 23.1403 34.832 23.0559C34.8671 22.9716 34.9188 22.8949 34.9843 22.8305C35.0497 22.766 35.1275 22.7151 35.2132 22.6806C35.2988 22.646 35.3906 22.6287 35.4831 22.6295C35.5757 22.6303 35.6671 22.6492 35.7522 22.6852C35.8372 22.7211 35.9141 22.7734 35.9784 22.839L38.0693 24.8981C38.1341 24.9618 38.1855 25.0375 38.2205 25.1208C38.2556 25.2042 38.2737 25.2935 38.2737 25.3837C38.2737 25.4739 38.2556 25.5632 38.2205 25.6465C38.1855 25.7298 38.1341 25.8055 38.0693 25.8693V25.8686Z" fill="#757575"/>
<path d="M52.8984 20.6406C52.8984 22.8594 54.0391 25.1406 55.9453 26.1562L55.2266 27.0781C53.8438 26.3203 52.8438 24.8984 52.3359 23.2188C51.8359 25 50.8438 26.5469 49.4609 27.3594L48.7266 26.4531C50.6016 25.3594 51.7266 22.9375 51.7422 20.6406V20H49.0547V18.9844H51.7422V16.8906H52.9141V18.9844H55.5703V20H52.8984V20.6406ZM60.7734 16.375V30.2656H59.5859V23.0469H57.6953V29.5625H56.5234V16.6719H57.6953V22H59.5859V16.375H60.7734ZM70.1328 17.4062V18.4062H64.7109V20.1562H69.7422V21.1562H64.7109V22.9844C67.6719 22.9844 69.3125 22.9297 71.2734 22.6094L71.3984 23.6094C69.3672 23.9375 67.6641 24 64.6016 24H63.4766V17.4062H70.1328ZM74.1328 16.3906V25H72.9141V16.3906H74.1328ZM69.5234 25.2031C72.4141 25.1875 74.1953 26.1094 74.1953 27.7031C74.1953 29.3281 72.4141 30.2344 69.5234 30.2344C66.5703 30.2344 64.8203 29.3281 64.8203 27.7031C64.8203 26.1094 66.5703 25.1875 69.5234 25.2031ZM69.5234 26.1719C67.3359 26.1719 66.0391 26.75 66.0391 27.7031C66.0391 28.6875 67.3359 29.2656 69.5234 29.2656C71.6484 29.2656 72.9922 28.6875 72.9922 27.7031C72.9922 26.75 71.6484 26.1719 69.5234 26.1719ZM87.4297 21.3125V23.2969H93.1641V24.3125H80.5078V23.2969H86.2266V21.3125H87.4297ZM86.8359 25.4531C89.8203 25.4531 91.6016 26.2969 91.6172 27.8438C91.6016 29.3906 89.8203 30.2344 86.8359 30.2344C83.8203 30.2344 82.0391 29.3906 82.0391 27.8438C82.0391 26.2969 83.8203 25.4531 86.8359 25.4531ZM86.8359 26.4219C84.5859 26.4219 83.2734 26.9375 83.2891 27.8438C83.2734 28.75 84.5859 29.2812 86.8359 29.2812C89.0547 29.2812 90.3828 28.75 90.3828 27.8438C90.3828 26.9375 89.0547 26.4219 86.8359 26.4219ZM92.0391 17.0312V18.0312H87.6328C87.7109 19.5781 90.0391 20.7734 92.4609 21.0312L92.0078 22C89.7344 21.7266 87.6016 20.7344 86.8359 19.1875C86.0781 20.7344 83.9531 21.7266 81.6641 22L81.2109 21.0312C83.6328 20.7734 85.9453 19.5938 86.0391 18.0312H81.6641V17.0312H92.0391ZM107.055 27.5156V28.5469H94.3359V27.5156H97.9141V24.875H95.9297V20.5938H104.242V18.4219H95.8984V17.4062H105.445V21.6094H97.1484V23.8594H105.773V24.875H103.602V27.5156H107.055ZM99.1172 27.5156H102.398V24.875H99.1172V27.5156Z" fill="black"/>
</svg>
