<svg width="45" height="45" viewBox="0 0 45 45" fill="none" xmlns="http://www.w3.org/2000/svg">
<path fill-rule="evenodd" clip-rule="evenodd" d="M22.5 39.5C27.0087 39.5 31.3327 37.7089 34.5208 34.5208C37.7089 31.3327 39.5 27.0087 39.5 22.5C39.5 17.9913 37.7089 13.6673 34.5208 10.4792C31.3327 7.29107 27.0087 5.5 22.5 5.5C17.9913 5.5 13.6673 7.29107 10.4792 10.4792C7.29107 13.6673 5.5 17.9913 5.5 22.5C5.5 27.0087 7.29107 31.3327 10.4792 34.5208C13.6673 37.7089 17.9913 39.5 22.5 39.5ZM16.125 18.25C16.6886 18.25 17.2291 18.0261 17.6276 17.6276C18.0261 17.2291 18.25 16.6886 18.25 16.125C18.25 15.5614 18.0261 15.0209 17.6276 14.6224C17.2291 14.2239 16.6886 14 16.125 14C15.5614 14 15.0209 14.2239 14.6224 14.6224C14.2239 15.0209 14 15.5614 14 16.125C14 16.6886 14.2239 17.2291 14.6224 17.6276C15.0209 18.0261 15.5614 18.25 16.125 18.25ZM31 22.5C31 24.7543 30.1045 26.9163 28.5104 28.5104C26.9163 30.1045 24.7543 31 22.5 31C20.2457 31 18.0837 30.1045 16.4896 28.5104C14.8955 26.9163 14 24.7543 14 22.5H31ZM31 16.125C31 16.6886 30.7761 17.2291 30.3776 17.6276C29.9791 18.0261 29.4386 18.25 28.875 18.25C28.3114 18.25 27.7709 18.0261 27.3724 17.6276C26.9739 17.2291 26.75 16.6886 26.75 16.125C26.75 15.5614 26.9739 15.0209 27.3724 14.6224C27.7709 14.2239 28.3114 14 28.875 14C29.4386 14 29.9791 14.2239 30.3776 14.6224C30.7761 15.0209 31 15.5614 31 16.125Z" fill="#FEE800"/>
</svg>
