<svg width="46" height="52" viewBox="0 0 46 52" fill="none" xmlns="http://www.w3.org/2000/svg">
<g clip-path="url(#clip0_66_4379)">
<path d="M34.0916 52.0001H31.4791L31.4362 33.6775H21.6284V31.1829H32.871C33.4403 31.1829 34.1345 31.9642 34.1345 32.5377C33.9899 38.9373 34.329 45.3674 34.1362 51.7653C34.1345 51.8477 34.1398 51.9284 34.0916 52.0001Z" fill="#FBAE17"/>
<path d="M41.7578 44.7312L38.7901 44.034L38.7188 43.939L42.3146 27.2688L45.9247 28.138L45.9997 28.2365L41.7578 44.7312Z" fill="#FBAE17"/>
<path d="M37.74 46.8469L36.8687 50.5256L40.4398 51.3787L41.3111 47.7L37.74 46.8469Z" fill="#FBAE17"/>
<path d="M10.75 0V2.83871H7.02394V7.78495H11.1355V0H18.9732V2.83871H14.2192V7.78495H19.016V10.6237H13.1056V13.8065H22.9777C22.9777 13.8065 23.0419 13.8656 23.0419 13.871V15.0968H27.3248V17.5914H24.1983V21.6344H27.539V15.0968H34.1774V17.5914H30.1944V21.6344H34.1989C34.1989 21.6344 34.2631 21.6935 34.2631 21.6989V24.129H29.295V26.7097H37.6038V29.2043H18.8875C18.8768 29.2043 18.8982 29.4194 18.8875 29.4194H15.8039V22.0645H4.11157V19.1828H17.4099C18.113 19.1828 18.8875 19.9068 18.8875 20.6237V26.7097H26.5967V24.129H22.5922C22.437 24.129 22.0016 23.8495 21.8838 23.7222C21.766 23.595 21.5429 23.1935 21.5429 23.0323V16.6882H0V13.8065H10.022V10.6237H5.24654C4.62373 10.6237 3.97595 9.79032 3.98309 9.1828V0H10.75Z" fill="#FBAE17"/>
</g>
<defs>
<clipPath id="clip0_66_4379">
<rect width="46" height="52" fill="white"/>
</clipPath>
</defs>
</svg>
