<svg width="120" height="120" viewBox="0 0 120 120" fill="none" xmlns="http://www.w3.org/2000/svg">
<g clip-path="url(#clip0_66_4386)">
<path d="M5.10404 83.2218C4.83273 82.8071 3.935 82.0461 3.53577 81.5785C2.20351 80.0235 1.01243 78.356 0 76.5737V92.5476C0 107.707 12.2903 119.998 27.4502 119.998H53.041L5.16359 83.599C5.03345 83.482 5.20771 83.3784 5.10404 83.2218Z" fill="url(#paint0_linear_66_4386)"/>
<path d="M92.5498 0H27.4502C12.2903 0 0 12.2903 0 27.4502V47.1252C2.53437 42.5175 6.2466 38.5604 10.9161 35.8407C13.7019 32.5233 17.2421 29.8059 21.4131 28.0281L25.282 26.6297L27.8737 26.0429C33.7166 24.9621 39.8706 25.6283 45.3011 28.0193C46.3312 28.4736 47.37 29.2456 48.4111 29.4133L54.5938 34.1203C59.6074 24.4747 69.3964 17.6105 81.036 16.8583C98.7391 15.7136 114.018 29.1354 115.163 46.8363C115.52 52.355 114.461 57.6377 112.3 62.3292L112.415 62.3116C112.415 62.3116 108.263 74.2776 95.2077 84.2056C86.612 95.5408 78.0274 106.885 69.3699 118.176C69.2309 118.357 69.0523 118.551 68.9883 118.769L68.8405 118.822C68.8008 118.73 68.7589 118.681 68.7126 118.657C68.3729 119.102 68.031 119.548 67.6914 119.993H92.5498C107.71 119.993 120 107.703 120 92.5432V27.4502C120 12.2903 107.71 0 92.5498 0ZM57.9619 23.4225L56.4973 25.7363L55.368 27.5208L45.9628 23.7997L48.1023 20.4228L49.5669 18.109L51.7065 14.732L59.0935 21.6425L57.9641 23.427L57.9619 23.4225ZM64.8327 16.8539L62.5167 18.3119L60.7301 19.4368L53.8394 12.0344L57.223 9.90368L59.539 8.4457L62.9226 6.31498L66.6216 15.729L64.8349 16.8539H64.8327ZM76.5164 14.0548L74.4122 14.2159L71.6815 14.4254L69.5772 14.5864L66.937 4.82391L70.9227 4.51731L73.6534 4.30777L77.6391 4.00118L76.5164 14.0526V14.0548Z" fill="url(#paint1_linear_66_4386)"/>
<path d="M68.2739 118.659L12.6986 76.4062C12.5728 76.2915 12.7405 76.1878 12.6412 76.0356C12.3743 75.6298 11.4942 74.8821 11.1038 74.4255C9.57747 72.6432 8.2386 70.7132 7.15118 68.6288C6.87547 68.1039 6.6946 67.5083 6.31742 67.0495C5.93362 65.7636 5.27411 64.4622 4.91899 63.1807C2.25889 53.5704 4.72489 43.2211 10.9186 35.8452C6.24904 38.5649 2.53902 42.5197 0.00244141 47.1297V76.5783C1.01487 78.3583 2.20375 80.028 3.53821 81.583C3.93745 82.0506 4.83517 82.8116 5.10648 83.2263C5.20794 83.3829 5.03589 83.4866 5.16603 83.6035L53.0434 120.004H67.6938C68.0335 119.559 68.3754 119.113 68.715 118.668C68.5871 118.604 68.4371 118.736 68.2761 118.663L68.2739 118.659Z" fill="url(#paint2_linear_66_4386)"/>
<path opacity="0.6" d="M68.2739 118.659L12.6986 76.4062C12.5728 76.2915 12.7405 76.1878 12.6412 76.0356C12.3743 75.6298 11.4942 74.8821 11.1038 74.4255C9.57747 72.6432 8.2386 70.7132 7.15118 68.6288C6.87547 68.1039 6.6946 67.5083 6.31742 67.0495C5.93362 65.7636 5.27411 64.4622 4.91899 63.1807C2.25889 53.5704 4.72489 43.2211 10.9186 35.8452C6.24904 38.5649 2.53902 42.5197 0.00244141 47.1297V76.5783C1.01487 78.3583 2.20375 80.028 3.53821 81.583C3.93745 82.0506 4.83517 82.8116 5.10648 83.2263C5.20794 83.3829 5.03589 83.4866 5.16603 83.6035L53.0434 120.004H67.6938C68.0335 119.559 68.3754 119.113 68.715 118.668C68.5871 118.604 68.4371 118.736 68.2761 118.663L68.2739 118.659Z" fill="white"/>
<path d="M17.9942 32.8453L20.6388 32.2475C26.5987 31.1469 32.8718 31.824 38.4081 34.2636C39.458 34.7268 40.519 35.512 41.5799 35.6863L48.1199 40.6668C47.5177 43.3578 47.2178 46.1612 47.2641 49.0419C47.5177 64.6937 57.8604 77.8177 71.9946 82.3174L66.6899 98.6508C75.9605 97.1729 83.5658 94.3562 89.7639 90.9528C82.7541 100.197 75.751 109.446 68.7147 118.668C68.761 118.692 68.8029 118.738 68.8426 118.833L68.9904 118.78C69.0544 118.562 69.2331 118.368 69.372 118.187C78.0295 106.898 86.6119 95.5539 95.2098 84.2165C88.9478 88.9809 80.6388 93.2754 69.7514 95.5561L74.8532 79.9683C61.888 76.523 51.9733 65.1216 51.0579 50.994C50.6653 44.9304 51.9821 39.1537 54.5937 34.129L48.4111 29.422C47.37 29.2522 46.3311 28.4824 45.301 28.028C39.8705 25.6348 33.7188 24.9709 27.8736 26.0517L25.2819 26.6384L21.413 28.0368C17.2442 29.8146 13.704 32.5321 10.916 35.8495C11.9174 35.2672 12.9629 34.74 14.0481 34.2768L17.9942 32.8519V32.8453Z" fill="url(#paint3_linear_66_4386)"/>
<path opacity="0.6" d="M17.9942 32.8453L20.6388 32.2475C26.5987 31.1469 32.8718 31.824 38.4081 34.2636C39.458 34.7268 40.519 35.512 41.5799 35.6863L48.1199 40.6668C47.5177 43.3578 47.2178 46.1612 47.2641 49.0419C47.5177 64.6937 57.8604 77.8177 71.9946 82.3174L66.6899 98.6508C75.9605 97.1729 83.5658 94.3562 89.7639 90.9528C82.7541 100.197 75.751 109.446 68.7147 118.668C68.761 118.692 68.8029 118.738 68.8426 118.833L68.9904 118.78C69.0544 118.562 69.2331 118.368 69.372 118.187C78.0295 106.898 86.6119 95.5539 95.2098 84.2165C88.9478 88.9809 80.6388 93.2754 69.7514 95.5561L74.8532 79.9683C61.888 76.523 51.9733 65.1216 51.0579 50.994C50.6653 44.9304 51.9821 39.1537 54.5937 34.129L48.4111 29.422C47.37 29.2522 46.3311 28.4824 45.301 28.028C39.8705 25.6348 33.7188 24.9709 27.8736 26.0517L25.2819 26.6384L21.413 28.0368C17.2442 29.8146 13.704 32.5321 10.916 35.8495C11.9174 35.2672 12.9629 34.74 14.0481 34.2768L17.9942 32.8519V32.8453Z" fill="white"/>
<path d="M4.91637 63.1784C5.27149 64.46 5.92879 65.7613 6.31479 67.0473C6.69197 67.5061 6.87505 68.1016 7.14856 68.6266C8.23818 70.711 9.57485 72.6432 11.1012 74.4232C11.4938 74.882 12.3717 75.6275 12.6386 76.0334C12.7401 76.1856 12.5702 76.287 12.6959 76.404L68.2735 118.657C68.4345 118.727 68.5845 118.595 68.7124 118.661C75.7486 109.439 82.7518 100.19 89.7616 90.9463C83.5657 94.3497 75.9604 97.1664 66.6876 98.6442L71.9923 82.3109C57.8581 77.8112 47.5154 64.6872 47.2618 49.0354C47.2155 46.1569 47.5154 43.3534 48.1176 40.6603L41.5776 35.6797C40.5167 35.5077 39.4579 34.7202 38.4058 34.257C32.8695 31.8175 26.5942 31.1404 20.6365 32.241L17.9919 32.8388L14.0458 34.2637C12.9584 34.7269 11.9151 35.254 10.9137 35.8363C4.72006 43.2123 2.25406 53.5637 4.91416 63.1718L4.91637 63.1784Z" fill="url(#paint4_linear_66_4386)"/>
<path opacity="0.6" d="M4.91637 63.1784C5.27149 64.46 5.92879 65.7613 6.31479 67.0473C6.69197 67.5061 6.87505 68.1016 7.14856 68.6266C8.23818 70.711 9.57485 72.6432 11.1012 74.4232C11.4938 74.882 12.3717 75.6275 12.6386 76.0334C12.7401 76.1856 12.5702 76.287 12.6959 76.404L68.2735 118.657C68.4345 118.727 68.5845 118.595 68.7124 118.661C75.7486 109.439 82.7518 100.19 89.7616 90.9463C83.5657 94.3497 75.9604 97.1664 66.6876 98.6442L71.9923 82.3109C57.8581 77.8112 47.5154 64.6872 47.2618 49.0354C47.2155 46.1569 47.5154 43.3534 48.1176 40.6603L41.5776 35.6797C40.5167 35.5077 39.4579 34.7202 38.4058 34.257C32.8695 31.8175 26.5942 31.1404 20.6365 32.241L17.9919 32.8388L14.0458 34.2637C12.9584 34.7269 11.9151 35.254 10.9137 35.8363C4.72006 43.2123 2.25406 53.5637 4.91416 63.1718L4.91637 63.1784Z" fill="white"/>
<path opacity="0.6" d="M4.91637 63.1784C5.27149 64.46 5.92879 65.7613 6.31479 67.0473C6.69197 67.5061 6.87505 68.1016 7.14856 68.6266C8.23818 70.711 9.57485 72.6432 11.1012 74.4232C11.4938 74.882 12.3717 75.6275 12.6386 76.0334C12.7401 76.1856 12.5702 76.287 12.6959 76.404L68.2735 118.657C68.4345 118.727 68.5845 118.595 68.7124 118.661C75.7486 109.439 82.7518 100.19 89.7616 90.9463C83.5657 94.3497 75.9604 97.1664 66.6876 98.6442L71.9923 82.3109C57.8581 77.8112 47.5154 64.6872 47.2618 49.0354C47.2155 46.1569 47.5154 43.3534 48.1176 40.6603L41.5776 35.6797C40.5167 35.5077 39.4579 34.7202 38.4058 34.257C32.8695 31.8175 26.5942 31.1404 20.6365 32.241L17.9919 32.8388L14.0458 34.2637C12.9584 34.7269 11.9151 35.254 10.9137 35.8363C4.72006 43.2123 2.25406 53.5637 4.91416 63.1718L4.91637 63.1784Z" fill="white"/>
<path d="M51.0558 50.9897C51.9712 65.1173 61.8859 76.5165 74.8511 79.964L69.7493 95.5519C80.6367 93.2711 88.9457 88.9766 95.2077 84.2123C108.261 74.2821 112.415 62.3183 112.415 62.3183L112.3 62.3359C114.461 57.6443 115.52 52.3617 115.163 46.8429C114.018 29.1398 98.7369 15.718 81.036 16.865C69.3964 17.6194 59.6074 24.4813 54.5938 34.127C51.9822 39.1516 50.6654 44.9284 51.058 50.9919L51.0558 50.9897ZM77.7252 41.2779C78.1796 39.0854 80.3257 37.676 82.5182 38.1303C84.7107 38.5847 86.1201 40.7309 85.6658 42.9234C85.2114 45.1159 83.0652 46.5253 80.8727 46.0709C78.6803 45.6166 77.2708 43.4704 77.7252 41.2779ZM77.2818 56.193C79.7456 55.7805 81.969 54.199 83.6233 52.3969H83.7291L85.7364 54.3358C83.8438 56.4908 81.358 58.1848 78.5523 58.8928L76.4767 59.2259H75.1004L73.7659 59.0516C71.0021 58.5509 68.481 57.2275 66.3657 55.4144V55.3085L68.3509 53.2947C70.8169 55.357 74.0063 56.7422 77.2818 56.193ZM64.8724 41.9484C65.3268 39.756 67.473 38.3465 69.6655 38.8009C71.858 39.2553 73.2674 41.4014 72.813 43.5939C72.3587 45.7864 70.2125 47.1959 68.02 46.7415C65.8275 46.2871 64.4181 44.1409 64.8724 41.9484Z" fill="white"/>
<path d="M68.0223 46.7435C70.2148 47.1979 72.3609 45.7884 72.8153 43.596C73.2697 41.4035 71.8602 39.2573 69.6677 38.8029C67.4752 38.3485 65.3291 39.758 64.8747 41.9505C64.4203 44.143 65.8298 46.2891 68.0223 46.7435Z" fill="#FBAE17"/>
<path d="M80.8728 46.0709C83.0653 46.5253 85.2115 45.1158 85.6659 42.9233C86.1203 40.7309 84.7108 38.5847 82.5183 38.1303C80.3258 37.6759 78.1797 39.0854 77.7253 41.2779C77.2709 43.4704 78.6804 45.6165 80.8728 46.0709Z" fill="#FBAE17"/>
<path d="M66.3657 55.3085V55.4144C68.481 57.2275 71.0021 58.5509 73.7659 59.0516L75.1004 59.2259H76.4767L78.5523 58.8928C81.358 58.187 83.8439 56.493 85.7364 54.3358L83.7292 52.397H83.6233C81.969 54.199 79.7456 55.7805 77.2818 56.193C74.0063 56.7422 70.8169 55.357 68.3509 53.2947L66.3657 55.3085Z" fill="#FBAE17"/>
<path d="M70.9227 4.51956L66.937 4.82395L69.5773 14.5887L71.6837 14.4254L74.4122 14.2159L76.5165 14.0549L77.6392 4.00342L73.6534 4.31001L70.9227 4.51956Z" fill="white"/>
<path d="M59.537 8.44567L57.221 9.90585L53.8374 12.0344L60.7281 19.439L62.5147 18.3141L64.8329 16.8539L66.6173 15.729L62.9206 6.31494L59.537 8.44567Z" fill="white"/>
<path d="M49.567 18.1067L48.1024 20.4205L45.9629 23.7975L55.3681 27.5185L56.4974 25.7363L57.962 23.4225L59.0913 21.6381L51.7044 14.7297L49.567 18.1067Z" fill="white"/>
</g>
<defs>
<linearGradient id="paint0_linear_66_4386" x1="-34.6805" y1="50.7602" x2="69.2398" y2="154.68" gradientUnits="userSpaceOnUse">
<stop stop-color="#FFE9B3"/>
<stop offset="0.32" stop-color="#FDD276"/>
<stop offset="0.63" stop-color="#FCBE43"/>
<stop offset="0.87" stop-color="#FBB223"/>
<stop offset="1" stop-color="#FBAE17"/>
</linearGradient>
<linearGradient id="paint1_linear_66_4386" x1="20.9433" y1="-4.86361" x2="124.864" y2="99.0567" gradientUnits="userSpaceOnUse">
<stop stop-color="#FFE9B3"/>
<stop offset="0.32" stop-color="#FDD276"/>
<stop offset="0.63" stop-color="#FCBE43"/>
<stop offset="0.87" stop-color="#FBB223"/>
<stop offset="1" stop-color="#FBAE17"/>
</linearGradient>
<linearGradient id="paint2_linear_66_4386" x1="-17.7999" y1="33.8821" x2="86.1182" y2="137.8" gradientUnits="userSpaceOnUse">
<stop stop-color="#FFE9B3"/>
<stop offset="0.32" stop-color="#FDD276"/>
<stop offset="0.63" stop-color="#FCBE43"/>
<stop offset="0.87" stop-color="#FBB223"/>
<stop offset="1" stop-color="#FBAE17"/>
</linearGradient>
<linearGradient id="paint3_linear_66_4386" x1="0.659416" y1="15.4201" x2="104.58" y2="119.34" gradientUnits="userSpaceOnUse">
<stop stop-color="#FFE9B3"/>
<stop offset="0.32" stop-color="#FDD276"/>
<stop offset="0.63" stop-color="#FCBE43"/>
<stop offset="0.87" stop-color="#FBB223"/>
<stop offset="1" stop-color="#FBAE17"/>
</linearGradient>
<linearGradient id="paint4_linear_66_4386" x1="-6.024" y1="22.1035" x2="97.8963" y2="126.024" gradientUnits="userSpaceOnUse">
<stop stop-color="#FFE9B3"/>
<stop offset="0.32" stop-color="#FDD276"/>
<stop offset="0.63" stop-color="#FCBE43"/>
<stop offset="0.87" stop-color="#FBB223"/>
<stop offset="1" stop-color="#FBAE17"/>
</linearGradient>
<clipPath id="clip0_66_4386">
<rect width="120" height="120" fill="white"/>
</clipPath>
</defs>
</svg>
