<svg width="51" height="50" viewBox="0 0 51 50" fill="none" xmlns="http://www.w3.org/2000/svg">
<path opacity="0.5" d="M46 25C46 36.5983 36.5983 46 25 46C13.4017 46 4 36.5983 4 25C4 13.4017 13.4017 4 25 4C36.5983 4 46 13.4017 46 25Z" fill="#757575"/>
<path d="M34.8521 39.6062C31.847 41.6322 28.2844 42.7141 24.6373 42.7083C20.9902 42.7141 17.4276 41.6322 14.4224 39.6062C13.1389 38.7417 12.5906 37.0958 13.3386 35.7562C14.8835 32.9792 18.071 31.25 24.6373 31.25C31.2035 31.25 34.391 32.9792 35.938 35.7562C36.6818 37.0958 36.1356 38.7417 34.8521 39.6062ZM24.6373 25C26.328 25 27.9495 24.3415 29.1451 23.1694C30.3406 21.9973 31.0123 20.4076 31.0123 18.75C31.0123 17.0924 30.3406 15.5027 29.1451 14.3306C27.9495 13.1585 26.328 12.5 24.6373 12.5C22.9465 12.5 21.325 13.1585 20.1295 14.3306C18.9339 15.5027 18.2623 17.0924 18.2623 18.75C18.2623 20.4076 18.9339 21.9973 20.1295 23.1694C21.325 24.3415 22.9465 25 24.6373 25Z" fill="#757575"/>
<circle cx="25" cy="25" r="24" stroke="#FCC57B" stroke-width="2"/>
</svg>
