<svg width="45" height="45" viewBox="0 0 45 45" fill="none" xmlns="http://www.w3.org/2000/svg">
<path d="M22.5 5.5C20.2675 5.5 18.0569 5.93972 15.9944 6.79405C13.9318 7.64838 12.0578 8.90059 10.4792 10.4792C7.29107 13.6673 5.5 17.9913 5.5 22.5C5.5 27.0087 7.29107 31.3327 10.4792 34.5208C12.0578 36.0994 13.9318 37.3516 15.9944 38.206C18.0569 39.0603 20.2675 39.5 22.5 39.5C27.0087 39.5 31.3327 37.7089 34.5208 34.5208C37.7089 31.3327 39.5 27.0087 39.5 22.5C39.5 20.2675 39.0603 18.0569 38.206 15.9944C37.3516 13.9318 36.0994 12.0578 34.5208 10.4792C32.9422 8.90059 31.0682 7.64838 29.0056 6.79405C26.9431 5.93972 24.7325 5.5 22.5 5.5ZM14 18.25C14 17.5737 14.2687 16.9251 14.7469 16.4469C15.2251 15.9687 15.8737 15.7 16.55 15.7C17.2263 15.7 17.8749 15.9687 18.3531 16.4469C18.8313 16.9251 19.1 17.5737 19.1 18.25C19.1 18.9263 18.8313 19.5749 18.3531 20.0531C17.8749 20.5313 17.2263 20.8 16.55 20.8C15.8737 20.8 15.2251 20.5313 14.7469 20.0531C14.2687 19.5749 14 18.9263 14 18.25ZM29.3 29.3H15.7V25.9H29.3V29.3ZM28.45 20.8C27.7737 20.8 27.1251 20.5313 26.6469 20.0531C26.1687 19.5749 25.9 18.9263 25.9 18.25C25.9 17.5737 26.1687 16.9251 26.6469 16.4469C27.1251 15.9687 27.7737 15.7 28.45 15.7C29.1263 15.7 29.7749 15.9687 30.2531 16.4469C30.7313 16.9251 31 17.5737 31 18.25C31 18.9263 30.7313 19.5749 30.2531 20.0531C29.7749 20.5313 29.1263 20.8 28.45 20.8Z" fill="#FCC57B"/>
</svg>
