<svg width="40" height="40" viewBox="0 0 40 40" fill="none" xmlns="http://www.w3.org/2000/svg">
<path fill-rule="evenodd" clip-rule="evenodd" d="M28.3332 26.6667C25.1898 26.6667 23.6198 26.6667 22.6432 25.69C21.6665 24.7133 21.6665 23.1433 21.6665 20C21.6665 16.8567 21.6665 15.2867 22.6432 14.31C23.6198 13.3333 25.1898 13.3333 28.3332 13.3333C31.4765 13.3333 33.0465 13.3333 34.0232 14.31C34.9998 15.2867 34.9998 16.8567 34.9998 20C34.9998 23.1433 34.9998 24.7133 34.0232 25.69C33.0465 26.6667 31.4765 26.6667 28.3332 26.6667ZM26.1565 16.25C26.0532 16.1468 25.9306 16.065 25.7956 16.0092C25.6607 15.9534 25.5161 15.9247 25.3701 15.9247C25.2241 15.9248 25.0795 15.9537 24.9446 16.0096C24.8097 16.0656 24.6872 16.1475 24.584 16.2508C24.4808 16.3541 24.399 16.4768 24.3432 16.6117C24.2874 16.7466 24.2587 16.8912 24.2587 17.0373C24.2588 17.1833 24.2877 17.3279 24.3436 17.4627C24.3996 17.5976 24.4815 17.7201 24.5848 17.8233L26.7615 20L24.5848 22.1767C24.3847 22.3868 24.2747 22.6668 24.2783 22.9569C24.2818 23.247 24.3986 23.5242 24.6038 23.7294C24.8089 23.9346 25.0862 24.0514 25.3763 24.0549C25.6664 24.0585 25.9464 23.9484 26.1565 23.7483L28.3332 21.5717L30.5098 23.7483C30.7199 23.9484 30.9999 24.0585 31.2901 24.0549C31.5802 24.0514 31.8574 23.9346 32.0626 23.7294C32.2677 23.5242 32.3846 23.247 32.3881 22.9569C32.3916 22.6668 32.2816 22.3868 32.0815 22.1767L29.9048 20L32.0815 17.8233C32.2816 17.6132 32.3916 17.3332 32.3881 17.0431C32.3846 16.753 32.2677 16.4758 32.0626 16.2706C31.8574 16.0654 31.5802 15.9486 31.2901 15.9451C30.9999 15.9415 30.7199 16.0516 30.5098 16.2517L28.3332 18.4283L26.1565 16.25Z" fill="#FF8B00"/>
<path opacity="0.5" d="M5.00484 19.5267C5.06817 16.455 5.09984 14.92 6.13484 13.6067C6.32317 13.3667 6.6015 13.0817 6.83483 12.8883C8.1065 11.8283 9.7865 11.8283 13.1482 11.8283C14.3482 11.8283 14.9498 11.8283 15.5232 11.675C15.6417 11.6421 15.759 11.6049 15.8748 11.5633C16.4348 11.3617 16.9365 11.0133 17.9382 10.32C21.8948 7.57833 23.8715 6.20833 25.5332 6.80333C25.8515 6.91833 26.1598 7.08333 26.4348 7.28667C27.6148 8.15667 27.8982 9.97667 28.0832 13.3333C25.1065 13.3333 23.5932 13.36 22.6432 14.31C21.6665 15.2867 21.6665 16.8567 21.6665 20C21.6665 23.1433 21.6665 24.7133 22.6432 25.69C23.5932 26.64 25.1065 26.6667 28.0832 26.6667C27.8982 30.0233 27.6148 31.8433 26.4348 32.7133C26.1589 32.9157 25.8559 33.0783 25.5348 33.1967C23.8732 33.7917 21.8948 32.4217 17.9382 29.68C16.9365 28.9867 16.4348 28.6383 15.8748 28.4367C15.759 28.3951 15.6417 28.3579 15.5232 28.325C14.9498 28.1717 14.3498 28.1717 13.1482 28.1717C9.7865 28.1717 8.1065 28.1717 6.83317 27.1117C6.57701 26.8967 6.34306 26.6566 6.13484 26.395C5.09984 25.0783 5.06817 23.545 5.00484 20.475C4.99839 20.1584 4.99839 19.8433 5.00484 19.5267Z" fill="#FF8B00"/>
</svg>
